# xmcd CD database file
#
# Track frame offsets:
#	150
#	7019
#	16556
#	29187
#	46134
#	52942
#	62563
#	72502
#	81567
#	91295
#	102119
#	112669
#	123061
#	135401
#	146692
#	152467
#	159922
#	170319
#	183034
#	191773
#	204849
#	215911
#	225419
#	234678
#	244931
#	256898
#	264277
#	277051
#	288299
#
# Disc length: 3952 seconds
#
# Revision: 0
# Processed by: cddbd v1.5.1PL0 Copyright (c) Steve Scherf et al.
# Submitted via: CDex 1.51
#
DISCID=840f6e1d
DTITLE=Faron Young - Live Fast Love Hard Die Young- Best of Faron Young
DYEAR=20000
DGENRE=Country
TTITLE0=01  Going Steady
TTITLE1=02  Live Fast Love Hard Die Young
TTITLE2=03  I Miss You Already
TTITLE3=04  Sweet Dreams
TTITLE4=05  Alone With You
TTITLE5=06  Country Girl
TTITLE6=07  Face to the Wall
TTITLE7=08  The Comeback
TTITLE8=09  Hellow Walls
TTITLE9=10  The Yellow Bandana
TTITLE10=11  Walk Tall
TTITLE11=12  Wine Me Up
TTITLE12=13  It's Four in the Morning
TTITLE13=14  The Other Woman
TTITLE14=15  I'll Trade all My Tomorrows
TTITLE15=16  Your Cheatin' Heart
TTITLE16=17  A Satisfied Mind
TTITLE17=18  There Goes My Everything
TTITLE18=19  The Race is On
TTITLE19=20  Swinging Doors
TTITLE20=21  Crying Time
TTITLE21=22  King of the Road
TTITLE22=23  Busted
TTITLE23=24  Back Street Affair
TTITLE24=25  High Noon
TTITLE25=26  Hey Mr Bluebird
TTITLE26=27  Apartment Number Nine
TTITLE27=28  Sweet Thing
TTITLE28=29  Mexican Joe
EXTD=YEAR: 20000
EXTT0=
EXTT1=
EXTT2=
EXTT3=
EXTT4=
EXTT5=
EXTT6=
EXTT7=
EXTT8=
EXTT9=
EXTT10=
EXTT11=
EXTT12=
EXTT13=
EXTT14=
EXTT15=
EXTT16=
EXTT17=
EXTT18=
EXTT19=
EXTT20=
EXTT21=
EXTT22=
EXTT23=
EXTT24=
EXTT25=
EXTT26=
EXTT27=
EXTT28=
PLAYORDER=
